<?xml version="1.0" encoding="utf-8"?>
<!-- Generator: Adobe Illustrator 25.2.3, SVG Export Plug-In . SVG Version: 6.00 Build 0)  -->
<svg version="1.1" id="Layer_1" xmlns="http://www.w3.org/2000/svg" xmlns:xlink="http://www.w3.org/1999/xlink" x="0px" y="0px"
	 viewBox="0 0 512 512" style="enable-background:new 0 0 512 512;" xml:space="preserve">
<style type="text/css">
	.st0{fill:#A8A9AC;}
	.st1{fill:#FBB042;}
</style>
<g>
	<path id="Path_2" class="st0" d="M445.66,236.08l-11.14,6.58c3.54,14.8,5.35,29.95,5.4,45.16c0,108.82-88.22,197.04-197.04,197.04
		c-0.01,0-0.02,0-0.03,0c-31.94,0.02-63.4-7.77-91.65-22.69C86.41,428.16,45.82,361.01,45.83,287.83
		c0.02-73.11,40.62-140.16,105.38-174.08c12.99-6.89,26.72-12.3,40.92-16.13V84.78c-14.13,3.58-27.84,8.63-40.92,15.08
		C79.19,134.79,33.44,207.78,33.4,287.83c0.04,80.09,45.78,153.14,117.81,188.15c28.52,14.01,59.87,21.31,91.65,21.33
		c115.69,0.02,209.49-93.75,209.5-209.44c0-0.02,0-0.03,0-0.05C452.3,270.36,450.05,252.98,445.66,236.08z"/>
	<path id="Polygon_1" class="st1" d="M472.51,144.85c5.81,3.34,7.82,10.75,4.48,16.56c-1.07,1.87-2.62,3.41-4.48,4.48L248.59,294.44
		c-5.81,3.34-13.23,1.33-16.56-4.48c-1.05-1.84-1.61-3.92-1.61-6.04V26.82c0-6.7,5.43-12.13,12.14-12.13c2.12,0,4.2,0.56,6.03,1.61
		L472.51,144.85z"/>
</g>
</svg>
